# xmcd
#
# Track frame offsets: 
#        150
#        5245
#        23590
#        40656
#        56793
#        76836
#        96236
#        115987
#        124283
#        143409
#        163767
#        177753
#        195790
#        210935
#
# Disc length: 3045 seconds
#
# Revision: 0
# Processed by: cddbd v1.5.2PL0 Copyright (c) Steve Scherf et al.
# Submitted via: ExactAudioCopyFreeDBPlugin 1.0
#
DISCID=ac0be30e
DTITLE=The R.O.C. - X-Posed (Remastered)
DYEAR=2015
DGENRE=The Wicked Shit
TTITLE0=The Key
TTITLE1=They Want To Do Me
TTITLE2=Pain in The Chamba
TTITLE3=Summer in My Mind
TTITLE4=E.S.T.D.
TTITLE5=Wus The Deal
TTITLE6=Outrage
TTITLE7=I'm Tellin'
TTITLE8=Thought Chain
TTITLE9=Bad Man
TTITLE10=Not Like This
TTITLE11=Intro To My Click
TTITLE12=The Connection
TTITLE13=X-Posure
EXTD=
EXTT0=
EXTT1=
EXTT2=
EXTT3=
EXTT4=
EXTT5=
EXTT6=
EXTT7=
EXTT8=
EXTT9=
EXTT10=
EXTT11=
EXTT12=
EXTT13=
PLAYORDER=
